<svg width="20" height="20" viewBox="0 0 20 20" fill="none" xmlns="http://www.w3.org/2000/svg">
<g clip-path="url(#clip0_214_10)">
<path d="M17.4501 6.66667C17.0334 2.925 13.8501 0 10.0001 0C6.15007 0 2.96673 2.925 2.55007 6.66667H-0.0166016L1.5834 17.85C1.7584 19.075 2.82507 20 4.0584 20H15.9501C17.1834 20 18.2501 19.075 18.4251 17.85L20.0251 6.66667H17.4584H17.4501ZM10.0001 1.66667C12.9334 1.66667 15.3584 3.84167 15.7667 6.66667H4.2334C4.64173 3.84167 7.06673 1.66667 10.0001 1.66667ZM16.7667 17.6167C16.7084 18.025 16.3501 18.3333 15.9417 18.3333H4.0584C3.65007 18.3333 3.29173 18.025 3.2334 17.6167L1.9084 8.33333H18.0917L16.7667 17.6167Z" fill="#222222"/>
</g>
<defs>
<clipPath id="clip0_214_10">
<rect width="20" height="20" fill="white"/>
</clipPath>
</defs>
</svg>
